<svg width="160" height="160" viewBox="0 0 160 160" fill="none" xmlns="http://www.w3.org/2000/svg">
<rect width="160" height="160" rx="32" fill="#D4E4FF"/>
<path d="M99.1494 55.6455L104.908 61.3682L105.268 61.7246L104.906 62.0791L81.4658 85.1016L61.873 104.694L61.5195 104.366L55.6602 98.9248L55.2783 98.5713L55.6475 98.2041L75.4268 78.5244L98.4453 55.6455L98.7969 55.2949L99.1494 55.6455Z" fill="#FF090E" stroke="#FF090E"/>
<path d="M61.4065 55.6455L55.6477 61.3682L55.2884 61.7246L55.6497 62.0791L79.0901 85.1016L98.6829 104.694L99.0364 104.366L104.896 98.9248L105.278 98.5713L104.908 98.2041L85.1292 78.5244L62.1106 55.6455L61.7591 55.2949L61.4065 55.6455Z" fill="#FF090E" stroke="#FF090E"/>
<path d="M80 24.5C110.651 24.5 135.5 49.3488 135.5 80C135.5 110.651 110.651 135.5 80 135.5C49.3488 135.5 24.5 110.651 24.5 80C24.5 49.3488 49.3488 24.5 80 24.5ZM80 37.3184C74.3949 37.3184 68.8444 38.4224 63.666 40.5674C58.4878 42.7123 53.7826 45.8561 49.8193 49.8193C45.8561 53.7826 42.7123 58.4878 40.5674 63.666C38.4224 68.8444 37.3184 74.3949 37.3184 80C37.3184 85.6051 38.4224 91.1556 40.5674 96.334C42.7123 101.512 45.8561 106.217 49.8193 110.181C53.7826 114.144 58.4878 117.288 63.666 119.433C68.8444 121.578 74.3949 122.682 80 122.682C91.3199 122.682 102.176 118.185 110.181 110.181C118.185 102.176 122.682 91.3199 122.682 80C122.682 68.6801 118.185 57.8237 110.181 49.8193C102.176 41.8149 91.3199 37.3184 80 37.3184Z" fill="#84ADFF" stroke="#84ADFF" stroke-width="3"/>
</svg>
