<svg width="160" height="160" viewBox="0 0 160 160" fill="none" xmlns="http://www.w3.org/2000/svg">
<rect width="160" height="160" rx="32" fill="#D4E4FF"/>
<path d="M135.433 58.0389C138.448 65.3184 140 73.1208 140 81H110C110 77.0602 109.224 73.1592 107.716 69.5194C106.209 65.8797 103.999 62.5725 101.213 59.7867C98.4275 57.001 95.1203 54.7913 91.4806 53.2838C87.8408 51.7759 83.9398 51 80 51V21C87.8792 21 95.6816 22.5521 102.961 25.5672C110.241 28.5826 116.855 33.0021 122.427 38.5735C127.998 44.1453 132.417 50.7593 135.433 58.0389Z" fill="#155EEF"/>
<path d="M80 21C72.1208 21 64.3184 22.5521 57.0389 25.5672C49.7593 28.5826 43.1453 33.0021 37.5735 38.5735C32.0021 44.1453 27.5826 50.7593 24.5672 58.0389C21.5521 65.3184 20 73.1208 20 81C20 88.8792 21.5521 96.6816 24.5672 103.961C27.5826 111.241 32.0021 117.855 37.5735 123.427C43.1453 128.998 49.7593 133.417 57.0389 136.433C64.3184 139.448 72.1208 141 80 141V111C76.0602 111 72.1592 110.224 68.5194 108.716C64.8797 107.209 61.5725 104.999 58.7867 102.213C56.001 99.4275 53.7913 96.1203 52.2838 92.4806C50.7759 88.8408 50 84.9398 50 81C50 77.0602 50.7759 73.1592 52.2838 69.5194C53.7913 65.8797 56.001 62.5725 58.7867 59.7867C61.5725 57.001 64.8797 54.7913 68.5194 53.2838C72.1592 51.7759 76.0602 51 80 51V21Z" fill="#84ADFF"/>
<path d="M82.9382 61.75C82.9382 61.2361 82.7341 60.7433 82.3708 60.38C82.0074 60.0166 81.5146 59.8125 81.0007 59.8125C80.4869 59.8125 79.9941 60.0166 79.6307 60.38C79.2674 60.7433 79.0632 61.2361 79.0632 61.75V66.8598C79.0632 67.3737 79.2674 67.8665 79.6307 68.2299C79.9941 68.5932 80.4869 68.7973 81.0007 68.7973C81.5146 68.7973 82.0074 68.5932 82.3708 68.2299C82.7341 67.8665 82.9382 67.3737 82.9382 66.8598V61.75ZM68.4561 66.7746C68.0926 66.4193 67.604 66.2211 67.0958 66.2226C66.5875 66.2242 66.1002 66.4255 65.7389 66.783C65.3776 67.1406 65.1713 67.6258 65.1644 68.134C65.1576 68.6423 65.3507 69.1328 65.7022 69.5L69.4998 73.3311C69.6743 73.5285 69.8873 73.6882 70.1257 73.8005C70.3641 73.9127 70.6229 73.9752 70.8863 73.984C71.1496 73.9929 71.412 73.9479 71.6574 73.8518C71.9028 73.7558 72.126 73.6107 72.3134 73.4254C72.5008 73.2401 72.6484 73.0186 72.7472 72.7743C72.8461 72.53 72.894 72.2681 72.8882 72.0047C72.8824 71.7412 72.8228 71.4817 72.7133 71.2421C72.6037 71.0024 72.4464 70.7876 72.251 70.6108L68.4561 66.7746ZM96.2992 69.5C96.6399 69.1311 96.8241 68.6444 96.813 68.1424C96.8018 67.6404 96.5962 67.1623 96.2395 66.8089C95.8828 66.4556 95.4028 66.2545 94.9007 66.2481C94.3986 66.2417 93.9136 66.4304 93.548 66.7746L89.7505 70.6082C89.5611 70.7865 89.4095 71.0012 89.3048 71.2393C89.2001 71.4774 89.1444 71.7342 89.1411 71.9943C89.1378 72.2545 89.1869 72.5126 89.2855 72.7533C89.3841 72.9941 89.5301 73.2125 89.7149 73.3955C89.8997 73.5786 90.1195 73.7226 90.3612 73.8189C90.6028 73.9152 90.8614 73.9619 91.1215 73.9561C91.3815 73.9503 91.6378 73.8922 91.8749 73.7853C92.1121 73.6784 92.3252 73.5248 92.5018 73.3337L96.2992 69.5ZM83.4833 80.0813C80.8354 79.0377 78.3322 81.6752 79.3242 84.2405L88.5751 108.136C89.6342 110.869 93.486 110.872 94.5452 108.136L98.0947 98.9836L107.157 95.4057C109.864 94.3362 109.864 90.4896 107.157 89.4201L83.4833 80.0813ZM65.8133 80.2544H60.75C60.2361 80.2544 59.7433 80.4585 59.38 80.8219C59.0166 81.1852 58.8125 81.6781 58.8125 82.1919C58.8125 82.7058 59.0166 83.1986 59.38 83.5619C59.7433 83.9253 60.2361 84.1294 60.75 84.1294H65.8133C66.3272 84.1294 66.82 83.9253 67.1834 83.5619C67.5467 83.1986 67.7508 82.7058 67.7508 82.1919C67.7508 81.6781 67.5467 81.1852 67.1834 80.8219C66.82 80.4585 66.3272 80.2544 65.8133 80.2544ZM72.251 93.7756C72.6027 93.4087 72.7962 92.9184 72.7897 92.4102C72.7833 91.9021 72.5775 91.4168 72.2166 91.059C71.8557 90.7011 71.3687 90.4994 70.8605 90.4973C70.3523 90.4952 69.8636 90.6928 69.4998 91.0476L65.7022 94.8813C65.5231 95.0621 65.3814 95.2764 65.2851 95.512C65.1888 95.7476 65.1398 95.9999 65.141 96.2544C65.1422 96.5089 65.1936 96.7607 65.2921 96.9954C65.3906 97.2301 65.5343 97.443 65.7152 97.6222C65.896 97.8013 66.1103 97.943 66.3459 98.0393C66.5815 98.1356 66.8338 98.1846 67.0883 98.1834C67.3428 98.1822 67.5946 98.1309 67.8293 98.0323C68.064 97.9338 68.277 97.7901 68.4561 97.6093L72.251 93.7756Z" fill="#155EEF"/>
</svg>
