<svg width="160" height="160" viewBox="0 0 160 160" fill="none" xmlns="http://www.w3.org/2000/svg">
<rect width="160" height="160" rx="32" fill="#D4E4FF"/>
<path d="M99.4736 59.6455L106.353 66.4814L106.709 66.8359L106.353 67.1904L71.9785 101.354L71.626 101.705L71.2734 101.354L50.6475 80.8525L50.291 80.4971L50.6475 80.1426L57.5215 73.3115L57.874 72.9619L58.2266 73.3115L71.625 86.623L98.7686 59.6455L99.1211 59.2949L99.4736 59.6455Z" fill="#155EEF" stroke="#155EEF"/>
<path d="M80 24.5C110.651 24.5 135.5 49.3488 135.5 80C135.5 110.651 110.651 135.5 80 135.5C49.3488 135.5 24.5 110.651 24.5 80C24.5 49.3488 49.3488 24.5 80 24.5ZM80 37.3184C74.3949 37.3184 68.8444 38.4224 63.666 40.5674C58.4878 42.7123 53.7826 45.8561 49.8193 49.8193C45.8561 53.7826 42.7123 58.4878 40.5674 63.666C38.4224 68.8444 37.3184 74.3949 37.3184 80C37.3184 85.6051 38.4224 91.1556 40.5674 96.334C42.7123 101.512 45.8561 106.217 49.8193 110.181C53.7826 114.144 58.4878 117.288 63.666 119.433C68.8444 121.578 74.3949 122.682 80 122.682C91.3199 122.682 102.176 118.185 110.181 110.181C118.185 102.176 122.682 91.3199 122.682 80C122.682 68.6801 118.185 57.8237 110.181 49.8193C102.176 41.8149 91.3199 37.3184 80 37.3184Z" fill="#84ADFF" stroke="#84ADFF" stroke-width="3"/>
</svg>
