<svg width="160" height="160" viewBox="0 0 160 160" fill="none" xmlns="http://www.w3.org/2000/svg">
<rect width="160" height="160" rx="32" fill="#D4E4FF"/>
<path d="M80 24.5C110.651 24.5 135.5 49.3488 135.5 80C135.5 110.651 110.651 135.5 80 135.5C49.3488 135.5 24.5 110.651 24.5 80C24.5 49.3488 49.3488 24.5 80 24.5ZM80 37.3184C74.3949 37.3184 68.8444 38.4224 63.666 40.5674C58.4878 42.7123 53.7826 45.8561 49.8193 49.8193C45.8561 53.7826 42.7123 58.4878 40.5674 63.666C38.4224 68.8444 37.3184 74.3949 37.3184 80C37.3184 85.6051 38.4224 91.1556 40.5674 96.334C42.7123 101.512 45.8561 106.217 49.8193 110.181C53.7826 114.144 58.4878 117.288 63.666 119.433C68.8444 121.578 74.3949 122.682 80 122.682C91.3199 122.682 102.176 118.185 110.181 110.181C118.185 102.176 122.682 91.3199 122.682 80C122.682 68.6801 118.185 57.8237 110.181 49.8193C102.176 41.8149 91.3199 37.3184 80 37.3184Z" fill="#84ADFF" stroke="#84ADFF" stroke-width="3"/>
<path d="M58.5644 100H100.436C104.717 100 107.386 95.2868 105.246 91.5331L84.3099 54.8152C82.1691 51.0616 76.8309 51.0616 74.6901 54.8152L53.7545 91.5331C51.6137 95.2868 54.2827 100 58.5644 100ZM79.5 80.244C77.9708 80.244 76.7197 78.974 76.7197 77.4217V71.7772C76.7197 70.2249 77.9708 68.9549 79.5 68.9549C81.0292 68.9549 82.2803 70.2249 82.2803 71.7772V77.4217C82.2803 78.974 81.0292 80.244 79.5 80.244ZM82.2803 91.5331H76.7197V85.8886H82.2803V91.5331Z" fill="#132853"/>
</svg>
