<svg width="90" height="90" viewBox="0 0 90 90" fill="none" xmlns="http://www.w3.org/2000/svg">
<rect width="90" height="90" rx="20" fill="#D4E4FF"/>
<path d="M27.7838 36.8227L27.1688 38.2377C27.0727 38.4681 26.9105 38.6649 26.7028 38.8034C26.495 38.9418 26.2509 39.0157 26.0013 39.0157C25.7516 39.0157 25.5075 38.9418 25.2998 38.8034C25.092 38.6649 24.9299 38.4681 24.8338 38.2377L24.2188 36.8227C23.1375 34.3195 21.1572 32.3125 18.6688 31.1977L16.7713 30.3502C16.5411 30.2443 16.3461 30.0746 16.2094 29.8613C16.0727 29.6479 16 29.3998 16 29.1465C16 28.8931 16.0727 28.645 16.2094 28.4316C16.3461 28.2183 16.5411 28.0486 16.7713 27.9427L18.5638 27.1452C21.1148 25.9987 23.1289 23.9174 24.1913 21.3302L24.8263 19.8027C24.9192 19.5661 25.0812 19.3629 25.2912 19.2198C25.5013 19.0766 25.7496 19 26.0038 19C26.258 19 26.5063 19.0766 26.7163 19.2198C26.9264 19.3629 27.0884 19.5661 27.1813 19.8027L27.8138 21.3277C28.875 23.9154 30.8882 25.9975 33.4388 27.1452L35.2338 27.9452C35.4633 28.0514 35.6576 28.2211 35.7938 28.4341C35.93 28.6472 36.0023 28.8948 36.0023 29.1477C36.0023 29.4006 35.93 29.6482 35.7938 29.8613C35.6576 30.0743 35.4633 30.244 35.2338 30.3502L33.3338 31.1952C30.8458 32.3111 28.8665 34.319 27.7863 36.8227M54.2888 42.8352L54.6463 43.1902C56.2949 44.8974 57.4736 47.0023 58.0677 49.3001C58.6617 51.5979 58.6509 54.0103 58.0363 56.3027C57.2518 59.2254 55.526 61.8081 53.1258 63.651C50.7256 65.494 47.7849 66.4945 44.7588 66.4977C39.6688 66.4977 32.9738 64.9352 27.3263 62.7127C30.3388 59.1777 31.4388 55.6902 31.8263 51.0152C31.9188 49.8877 31.9763 49.4402 32.0838 49.0402C34.0663 41.6352 41.0463 37.5152 48.3138 39.4627C50.6388 40.0877 52.6688 41.2727 54.2888 42.8352ZM61.5738 24.9302L49.2238 34.5352C39.3588 32.1002 29.8988 37.8677 27.2538 47.7452C26.9988 48.6952 26.9188 49.6577 26.8363 50.6677C26.5488 54.1527 26.2188 58.1802 18.5038 63.9927C24.7538 67.7427 36.0038 71.4977 44.7588 71.4977C47.6013 71.4953 50.4061 70.847 52.9614 69.6019C55.5167 68.3568 57.7556 66.5474 59.5093 64.3103C61.2629 62.0732 62.4853 59.4669 63.0842 56.6882C63.683 53.9095 63.6427 51.031 62.9663 48.2702L72.5663 35.9252C72.9404 35.4443 73.1261 34.8433 73.0883 34.2352C73.0506 33.6271 72.792 33.0536 72.3613 32.6227L64.8763 25.1377C64.4457 24.7066 63.8724 24.4476 63.2643 24.4094C62.6561 24.3712 62.055 24.5564 61.5738 24.9302ZM58.2413 39.7152C58.0824 39.5508 57.9207 39.3891 57.7563 39.2302L54.9463 36.4202L62.9013 30.2327L67.2663 34.5977L61.0763 42.5527L58.2413 39.7152Z" fill="#155EEF"/>
</svg>
