<svg width="90" height="90" viewBox="0 0 90 90" fill="none" xmlns="http://www.w3.org/2000/svg">
<rect width="90" height="90" rx="20" fill="#D4E4FF"/>
<path d="M30.0799 43.3115C30.0799 35.6787 30.0799 31.8623 32.4403 29.4907C34.8035 27.1191 38.6031 27.1191 46.2079 27.1191H54.2719C61.8739 27.1191 65.6763 27.1191 68.0367 29.4907C70.3999 31.8623 70.3999 35.6787 70.3999 43.3115V56.8075C70.3999 64.4403 70.3999 68.2567 68.0367 70.6283C65.6763 72.9999 61.8739 72.9999 54.2719 72.9999H46.2079C38.6031 72.9999 34.8035 72.9999 32.4403 70.6283C30.0771 68.2567 30.0799 64.4403 30.0799 56.8075V43.3115Z" fill="#155EEF"/>
<path opacity="0.5" d="M23.2816 20.2816C20 23.5604 20 28.8412 20 39.4V45C20 55.5588 20 60.8396 23.2816 64.1184C25.0092 65.8488 27.294 66.6664 30.6176 67.0528C30.08 64.7008 30.08 61.464 30.08 56.8048V43.3116C30.08 35.6788 30.08 31.8624 32.4404 29.4908C34.8036 27.1192 38.6032 27.1192 46.208 27.1192H54.272C58.8976 27.1192 62.112 27.1192 64.4584 27.6512C64.072 24.3108 63.2544 22.0176 61.5184 20.2816C58.2396 17 52.9588 17 42.4 17C31.8412 17 26.5604 17 23.2816 20.2816Z" fill="#84ADFF"/>
</svg>
