<svg width="90" height="90" viewBox="0 0 90 90" fill="none" xmlns="http://www.w3.org/2000/svg">
<rect width="90" height="90" rx="20" fill="#D4E4FF"/>
<path d="M22 36.85C22 34.8211 22.806 32.8753 24.2406 31.4406C25.6753 30.006 27.6211 29.2 29.65 29.2H36.9251C37.6825 29.2 38.1491 28.412 37.8584 27.7133C37.7119 27.3697 37.5959 27.0139 37.5117 26.65C36.6676 22.8582 39.5312 19 43.675 19C47.8213 19 50.6824 22.8582 49.8383 26.65C49.7541 27.0139 49.6381 27.3697 49.4916 27.7133C49.1983 28.412 49.6675 29.2 50.4249 29.2H55.15C57.1789 29.2 59.1247 30.006 60.5594 31.4406C61.994 32.8753 62.8 34.8211 62.8 36.85V41.5751C62.8 42.3325 63.5854 42.7991 64.2866 42.5084C64.6309 42.3656 64.9828 42.2432 65.35 42.1616C69.1418 41.3176 73 44.1787 73 48.325C73 52.4713 69.1418 55.3324 65.35 54.4883C64.9861 54.4041 64.6303 54.2881 64.2866 54.1415C63.5879 53.8483 62.8 54.3175 62.8 55.0748V62.35C62.8 64.3789 61.994 66.3247 60.5594 67.7594C59.1247 69.194 57.1789 70 55.15 70H50.3229C49.5884 70 49.1167 69.2579 49.3284 68.5567C49.4354 68.1997 49.5077 67.8308 49.5451 67.45C49.6129 66.638 49.5114 65.8207 49.2472 65.0499C48.9829 64.2791 48.5616 63.5716 48.0099 62.9719C47.4582 62.3723 46.7881 61.8936 46.042 61.5662C45.2958 61.2387 44.4898 61.0697 43.675 61.0697C42.8602 61.0697 42.0542 61.2387 41.308 61.5662C40.5619 61.8936 39.8918 62.3723 39.3401 62.9719C38.7884 63.5716 38.3671 64.2791 38.1028 65.0499C37.8386 65.8207 37.7371 66.638 37.8049 67.45C37.8406 67.8308 37.9137 68.1997 38.0242 68.5567C38.2333 69.2579 37.7615 70 37.0297 70H29.65C27.6211 70 25.6753 69.194 24.2406 67.7594C22.806 66.3247 22 64.3789 22 62.35V54.9729C22 54.2384 22.742 53.7667 23.4433 53.9783C23.8003 54.0854 24.1692 54.1577 24.55 54.1951C25.362 54.2629 26.1793 54.1614 26.95 53.8972C27.7208 53.6329 28.4284 53.2116 29.0281 52.6599C29.6277 52.1082 30.1064 51.4381 30.4338 50.692C30.7613 49.9458 30.9303 49.1398 30.9303 48.325C30.9303 47.5102 30.7613 46.7042 30.4338 45.958C30.1064 45.2119 29.6277 44.5418 29.0281 43.9901C28.4284 43.4384 27.7208 43.0171 26.95 42.7528C26.1793 42.4886 25.362 42.3871 24.55 42.4549C24.1692 42.4906 23.8003 42.5637 23.4433 42.6742C22.742 42.8833 22 42.4116 22 41.6797V36.85Z" fill="#155EEF"/>
</svg>
