<svg width="28" height="28" viewBox="0 0 28 28" fill="none" xmlns="http://www.w3.org/2000/svg">
<rect width="28" height="28" rx="14" fill="#D4E4FF"/>
<path d="M13.8065 10.7204C13.4232 10.7204 13.0556 10.8711 12.7846 11.1393C12.5135 11.4075 12.3613 11.7712 12.3613 12.1505V20.7312C12.3613 21.1105 12.5135 21.4742 12.7846 21.7424C13.0556 22.0106 13.4232 22.1613 13.8065 22.1613C14.1897 22.1613 14.5573 22.0106 14.8283 21.7424C15.0994 21.4742 15.2516 21.1105 15.2516 20.7312V12.1505C15.2516 11.7712 15.0994 11.4075 14.8283 11.1393C14.5573 10.8711 14.1897 10.7204 13.8065 10.7204ZM13.8065 5C13.4492 5 13.0999 5.10484 12.8028 5.30127C12.5058 5.4977 12.2742 5.77689 12.1375 6.10354C12.0008 6.43018 11.965 6.78962 12.0347 7.13638C12.1044 7.48315 12.2765 7.80168 12.5291 8.05168C12.7817 8.30169 13.1036 8.47194 13.454 8.54092C13.8044 8.6099 14.1677 8.57449 14.4978 8.43919C14.8278 8.30389 15.11 8.07477 15.3085 7.78079C15.507 7.48682 15.6129 7.1412 15.6129 6.78763C15.6129 6.31352 15.4226 5.85883 15.0838 5.52359C14.745 5.18834 14.2856 5 13.8065 5Z" fill="#155EEF"/>
</svg>
