<svg width="90" height="90" viewBox="0 0 90 90" fill="none" xmlns="http://www.w3.org/2000/svg">
<rect width="90" height="90" rx="20" fill="#D4E4FF"/>
<path d="M53.2474 65.8594C53.9526 65.8594 54.6289 66.1395 55.1275 66.6381C55.6261 67.1368 55.9063 67.8131 55.9063 68.5182C55.9063 69.2234 55.6261 69.8997 55.1275 70.3983C54.6289 70.897 53.9526 71.1771 53.2474 71.1771H37.2943C36.5891 71.1771 35.9128 70.897 35.4142 70.3983C34.9155 69.8997 34.6354 69.2234 34.6354 68.5182C34.6354 67.8131 34.9155 67.1368 35.4142 66.6381C35.9128 66.1395 36.5891 65.8594 37.2943 65.8594H53.2474ZM53.2474 18C53.8986 18.0001 54.5272 18.2392 55.0139 18.6719C55.5005 19.1047 55.8114 19.701 55.8876 20.3478L55.9063 20.6589V28.6354H61.224C62.5656 28.635 63.8577 29.1417 64.8415 30.0539C65.8252 30.9661 66.4278 32.2165 66.5284 33.5543L66.5417 33.9531V47.2474C66.5418 51.375 64.9422 55.3419 62.0789 58.3148C59.2156 61.2877 55.3114 63.0351 51.1868 63.1899L50.5885 63.2005H39.9531C35.8256 63.2007 31.8586 61.6011 28.8857 58.7377C25.9128 55.8744 24.1654 51.9703 24.0106 47.8456L24 47.2474V33.9531C23.9996 32.6115 24.5063 31.3194 25.4185 30.3356C26.3307 29.3519 27.5811 28.7493 28.9189 28.6487L29.3177 28.6354H34.6354V20.6589C34.6362 19.9812 34.8957 19.3293 35.3609 18.8366C35.8261 18.3438 36.4619 18.0472 37.1384 18.0075C37.815 17.9678 38.4811 18.1879 39.0008 18.6229C39.5205 19.0578 39.8545 19.6748 39.9345 20.3478L39.9531 20.6589V28.6354H50.5885V20.6589C50.5885 19.9537 50.8687 19.2774 51.3673 18.7788C51.8659 18.2801 52.5422 18 53.2474 18Z" fill="#155EEF"/>
</svg>
