<svg width="90" height="90" viewBox="0 0 90 90" fill="none" xmlns="http://www.w3.org/2000/svg">
<rect width="90" height="90" rx="20" fill="#D4E4FF"/>
<path d="M27.9732 19C25.5934 19 23.311 19.9454 21.6282 21.6282C19.9454 23.311 19 25.5934 19 27.9732V62.6696C19 65.0495 19.9454 67.3319 21.6282 69.0147C23.311 70.6975 25.5934 71.6429 27.9732 71.6429H62.6696C65.0495 71.6429 67.3319 70.6975 69.0147 69.0147C70.6975 67.3319 71.6429 65.0495 71.6429 62.6696V27.9732C71.6429 25.5934 70.6975 23.311 69.0147 21.6282C67.3319 19.9454 65.0495 19 62.6696 19H27.9732ZM22.5893 27.9732C22.5893 26.5453 23.1565 25.1759 24.1662 24.1662C25.1759 23.1565 26.5453 22.5893 27.9732 22.5893H62.6696C64.0975 22.5893 65.467 23.1565 66.4767 24.1662C67.4863 25.1759 68.0536 26.5453 68.0536 27.9732V62.6696C68.0536 64.0975 67.4863 65.467 66.4767 66.4767C65.467 67.4863 64.0975 68.0536 62.6696 68.0536H27.9732C26.5453 68.0536 25.1759 67.4863 24.1662 66.4767C23.1565 65.467 22.5893 64.0975 22.5893 62.6696V27.9732ZM26.1786 33.3571C26.1786 32.0879 26.6828 30.8706 27.5803 29.9731C28.4778 29.0756 29.695 28.5714 30.9643 28.5714H59.6786C60.9478 28.5714 62.1651 29.0756 63.0626 29.9731C63.9601 30.8706 64.4643 32.0879 64.4643 33.3571V38.1429C64.4643 39.4121 63.9601 40.6294 63.0626 41.5269C62.1651 42.4244 60.9478 42.9286 59.6786 42.9286H30.9643C29.695 42.9286 28.4778 42.4244 27.5803 41.5269C26.6828 40.6294 26.1786 39.4121 26.1786 38.1429V33.3571ZM30.9643 32.1607C30.647 32.1607 30.3427 32.2868 30.1183 32.5111C29.8939 32.7355 29.7679 33.0398 29.7679 33.3571V38.1429C29.7679 38.4602 29.8939 38.7645 30.1183 38.9889C30.3427 39.2132 30.647 39.3393 30.9643 39.3393H59.6786C59.9959 39.3393 60.3002 39.2132 60.5246 38.9889C60.7489 38.7645 60.875 38.4602 60.875 38.1429V33.3571C60.875 33.0398 60.7489 32.7355 60.5246 32.5111C60.3002 32.2868 59.9959 32.1607 59.6786 32.1607H30.9643ZM26.1786 49.5089C26.1786 49.033 26.3676 48.5765 26.7042 48.2399C27.0408 47.9034 27.4972 47.7143 27.9732 47.7143H41.1339C41.6099 47.7143 42.0664 47.9034 42.4029 48.2399C42.7395 48.5765 42.9286 49.033 42.9286 49.5089C42.9286 49.9849 42.7395 50.4414 42.4029 50.7779C42.0664 51.1145 41.6099 51.3036 41.1339 51.3036H27.9732C27.4972 51.3036 27.0408 51.1145 26.7042 50.7779C26.3676 50.4414 26.1786 49.9849 26.1786 49.5089ZM27.9732 56.6875C27.4972 56.6875 27.0408 56.8766 26.7042 57.2131C26.3676 57.5497 26.1786 58.0062 26.1786 58.4821C26.1786 58.9581 26.3676 59.4146 26.7042 59.7511C27.0408 60.0877 27.4972 60.2768 27.9732 60.2768H41.1339C41.6099 60.2768 42.0664 60.0877 42.4029 59.7511C42.7395 59.4146 42.9286 58.9581 42.9286 58.4821C42.9286 58.0062 42.7395 57.5497 42.4029 57.2131C42.0664 56.8766 41.6099 56.6875 41.1339 56.6875H27.9732ZM48.9107 50.7054C48.9107 48.3939 50.7867 46.5179 53.0982 46.5179H60.2768C62.5883 46.5179 64.4643 48.3939 64.4643 50.7054V57.8839C64.4643 58.9945 64.0231 60.0596 63.2378 60.8449C62.4525 61.6302 61.3874 62.0714 60.2768 62.0714H53.0982C51.9876 62.0714 50.9225 61.6302 50.1372 60.8449C49.3519 60.0596 48.9107 58.9945 48.9107 57.8839V50.7054ZM53.0982 50.1071C52.9396 50.1071 52.7874 50.1702 52.6752 50.2824C52.563 50.3945 52.5 50.5467 52.5 50.7054V57.8839C52.5 58.2141 52.768 58.4821 53.0982 58.4821H60.2768C60.4354 58.4821 60.5876 58.4191 60.6998 58.3069C60.812 58.1947 60.875 58.0426 60.875 57.8839V50.7054C60.875 50.5467 60.812 50.3945 60.6998 50.2824C60.5876 50.1702 60.4354 50.1071 60.2768 50.1071H53.0982Z" fill="#155EEF"/>
</svg>
